<svg xmlns="http://www.w3.org/2000/svg" version="1.1" xmlns:xlink="http://www.w3.org/1999/xlink" xmlns:svgjs="http://svgjs.dev/svgjs" width="1500" height="1563" viewBox="0 0 1500 1563"><g transform="matrix(1,0,0,1,-1.5732905585118715,0.6339620513133468)"><svg viewBox="0 0 237 247" data-background-color="#ffffff" preserveAspectRatio="xMidYMid meet" height="1563" width="1500" xmlns="http://www.w3.org/2000/svg" xmlns:xlink="http://www.w3.org/1999/xlink"><g id="tight-bounds" transform="matrix(1,0,0,1,0.24879078694229406,-0.09997365579206985)"><svg viewBox="0 0 236.50262930481284 247.2" height="247.2" width="236.50262930481284"><g><svg viewBox="0 0 236.50262930481284 247.2" height="247.2" width="236.50262930481284"><g><svg viewBox="0 0 236.50262930481284 247.2" height="247.2" width="236.50262930481284"><g id="textblocktransform"><svg viewBox="0 0 236.50262930481284 247.2" height="247.2" width="236.50262930481284" id="textblock"><g><svg viewBox="0 0 236.50262930481284 247.2" height="247.2" width="236.50262930481284"><path d="M235.949 53.02C234.837 27.36 231.668 20.227 231.668 20.227 221.94-6.202 209.798-0.506 198.891 3.292 179.634 3.446 160.454 9.091 141.242 12.119 100.915 12.581 60.243 4.986 20.117 23.717 16.348 29.464-3.91 24.846 0.67 56.304 1.871 69.39 6.252 83.913 6.119 95.922 6.719 98.026 7.553 93.202 7.909 96.23 9.154 104.39 11.189 100.541 12.856 105.365 10.533 118.246 12.2 128.971 13.79 140.21 10.988 143.135 7.397 141.749 5.785 151.449 5.618 158.479 4.718 157.145 3.728 156.837 3.005 156.632 1.549 157.402 1.793 159.608 2.627 167.152-0.953 171.514 1.293 178.904-0.252 186.91 2.36 193.838 2.005 202.511 1.96 204.255 2.205 205.744 2.594 206.154 4.317 208.361 1.805 212.672 2.071 217.342 19.75 249.262 38.929 227.195 57.041 241.872 61.744 231.608 58.209 245.516 60.088 243.36 61.555 240.846 62.623 251.263 64.279 245.362 64.535 243.668 64.146 239.665 65.058 240.435 65.536 240.846 65.958 240.743 66.025 238.382 66.125 234.841 65.247 237.048 65.013 235.201 67.537 225.861 66.914 248.081 69.283 247.158 69.171 244.438 68.482 240.538 69.894 241.051 71.295 237.151 71.34 233.918 72.585 242.693 72.629 244.592 72.852 245.926 73.208 246.85 77.099 237.305 80.968 250.237 85.049 245.926 87.55 241.205 89.952 248.492 92.487 246.696 93.376 245.259 94.277 242.693 95.133 247.004 105.618 247.928 116.792 244.079 126.732 247.158 153.294 241.41 181.68 249.518 209.687 241.923 216.291 238.998 223.152 234.841 229.589 231.506 229.589 231.506 234.804 222.371 234.804 181.316S235.916 145.393 236.082 112.703C236.249 80.013 237.027 78.679 235.916 53.02Z" opacity="1" fill="#1e55b3" data-fill-palette-color="tertiary"></path><g transform="matrix(1,0,0,1,55.76832,26.230666666666668)"><svg width="124.96598930481284" viewBox="2.6 -36.75 24 37.400000000000006" height="194.73866666666666" data-palette-color="#ffffff"><path d="M14.55 0.65L14.55 0.65Q9.7 0.6 6.65-1.53 3.6-3.65 2.6-7.2L2.6-7.2Q3.15-8.15 4.38-8.72 5.6-9.3 6.7-9.2L6.7-9.2Q7.6-6.5 9.7-5.1 11.8-3.7 14.8-3.75L14.8-3.75Q18-3.8 19.95-5.43 21.9-7.05 21.9-9.85L21.9-9.85Q21.9-14.1 17.45-15.35L17.45-15.35 10.8-17.2Q7.3-18.2 5.3-20.63 3.3-23.05 3.3-26.4L3.3-26.4Q3.3-29.4 4.83-31.75 6.35-34.1 9.03-35.43 11.7-36.75 15.15-36.75L15.15-36.75Q19-36.75 22.08-35.13 25.15-33.5 26.4-30.85L26.4-30.85Q25.95-30.05 24.93-29.28 23.9-28.5 22.7-28.1L22.7-28.1Q20.25-32.35 15-32.35L15-32.35Q11.9-32.35 9.95-30.78 8-29.2 8-26.7L8-26.7Q8-22.7 13.15-21.25L13.15-21.25 19.05-19.65Q22.6-18.7 24.6-16.13 26.6-13.55 26.6-9.9L26.6-9.9Q26.6-6.7 25.03-4.3 23.45-1.9 20.73-0.63 18 0.65 14.55 0.65Z" opacity="1" transform="matrix(1,0,0,1,0,0)" fill="#ffffff" class="wordmark-text-0" data-fill-palette-color="quaternary" id="text-0"></path></svg></g></svg></g></svg></g></svg></g><g></g></svg></g><defs></defs></svg><rect width="236.50262930481284" height="247.2" fill="none" stroke="none" visibility="hidden"></rect></g></svg></g></svg>